<svg width="1024" height="1024" viewBox="0 0 1024 1024" fill="none"
    xmlns="http://www.w3.org/2000/svg">
    <path fill-rule="evenodd" clip-rule="evenodd"
        d="M512 1024C794.77 1024 1024 794.77 1024 512C1024 229.23 794.77 0 512 0C229.23 0 0 229.23 0 512C0 794.77 229.23 1024 512 1024ZM508.731 526.573C477.55 462.682 392.622 343.628 313.664 284.91H313.66C256.691 242.542 164.38 209.761 164.38 314.074C164.38 334.905 176.438 489.079 183.51 514.111C208.09 601.131 297.67 623.326 377.354 609.893C238.069 633.37 202.638 711.154 279.159 788.934C424.491 936.655 488.04 751.878 504.326 704.526L504.327 704.523C507.312 695.843 508.709 691.782 508.729 695.235C508.75 691.782 510.147 695.843 513.132 704.523L513.139 704.544C529.441 751.925 592.994 936.632 738.299 788.934C814.819 711.154 779.387 633.375 640.104 609.893C719.786 623.326 809.365 601.131 833.948 514.111C841.02 489.082 853.078 334.907 853.078 314.074C853.078 209.761 760.77 242.542 703.798 284.91C624.838 343.626 539.915 462.686 508.731 526.573Z"
        fill="black" style="fill:black;fill-opacity:1;" />
</svg>