<svg width="1024" height="1024" viewBox="0 0 1024 1024"
    xmlns="http://www.w3.org/2000/svg">
    <path fill-rule="evenodd" clip-rule="evenodd"
        d="M512 0C229.23 0 0 229.23 0 512C0 794.77 229.23 1024 512 1024C794.77 1024 1024 794.77 1024 512C1024 229.23 794.77 0 512 0ZM484.967 592.802C492.823 599.763 502.504 603.015 512 602.709C521.496 603.015 531.177 599.763 539.033 592.802L806.794 355.55C808.232 360.789 809 366.305 809 372V652C809 686.242 781.242 714 747 714H277C242.758 714 215 686.242 215 652V372C215 366.305 215.768 360.789 217.206 355.55L484.967 592.802ZM285.793 310H738.207L512 510.432L285.793 310ZM277 230C198.576 230 135 293.576 135 372V652C135 730.424 198.576 794 277 794H747C825.424 794 889 730.424 889 652V372C889 293.576 825.424 230 747 230H277Z"
        fill="white" style="fill:white;fill-opacity:1;" />
</svg>