<svg width="1024" height="1024" viewBox="0 0 1024 1024" fill="none"
    xmlns="http://www.w3.org/2000/svg">
    <path fill-rule="evenodd" clip-rule="evenodd"
        d="M512 0C229.23 0 0 229.23 0 512C0 794.77 229.23 1024 512 1024C794.77 1024 1024 794.77 1024 512C1024 229.23 794.77 0 512 0ZM378 259C356.461 259 339 276.461 339 298L339 318L339 388L339 388.049V566.91C332.694 565.657 326.174 565 319.5 565C264.548 565 220 609.548 220 664.5C220 719.452 264.548 764 319.5 764C374.452 764 419 719.452 419 664.5C419 663.579 418.987 662.661 418.963 661.746C418.987 661.167 419 660.585 419 660V427H694V566.91C687.694 565.657 681.174 565 674.5 565C619.548 565 575 609.548 575 664.5C575 719.452 619.548 764 674.5 764C729.452 764 774 719.452 774 664.5C774 663.579 773.987 662.661 773.963 661.745C773.987 661.167 774 660.585 774 660V388V318V298C774 276.461 756.539 259 735 259H378Z"
        fill="white" style="fill:white;fill-opacity:1;" />
</svg>