<svg width="1024" height="1024" viewBox="0 0 1024 1024" fill="none"
    xmlns="http://www.w3.org/2000/svg">
    <path fill-rule="evenodd" clip-rule="evenodd"
        d="M512 0C229.23 0 0 229.23 0 512C0 794.77 229.23 1024 512 1024C794.77 1024 1024 794.77 1024 512C1024 229.23 794.77 0 512 0ZM267 305C244.909 305 227 322.909 227 345C227 367.091 244.909 385 267 385H757C779.091 385 797 367.091 797 345C797 322.909 779.091 305 757 305H267ZM227 515C227 492.909 244.909 475 267 475H757C779.091 475 797 492.909 797 515C797 537.091 779.091 555 757 555H267C244.909 555 227 537.091 227 515ZM267 640C244.909 640 227 657.909 227 680C227 702.091 244.909 720 267 720H757C779.091 720 797 702.091 797 680C797 657.909 779.091 640 757 640H267Z"
        fill="white" style="fill:white;fill-opacity:1;" />
</svg>